<svg xmlns="http://www.w3.org/2000/svg" viewBox="0 0 256 256">
  <rect width="256" height="256" fill="#006666"/>
  <path d="M70 50h116c8 0 15 7 15 15v126c0 8-7 15-15 15H70c-8 0-15-7-15-15V65c0-8 7-15 15-15z" fill="#008080"/>
  <path d="M70 50h116c8 0 15 7 15 15v126c0 8-7 15-15 15H70c-8 0-15-7-15-15V65c0-8 7-15 15-15z" fill="none" stroke="#D4AF37" stroke-width="3"/>
  <rect x="75" y="70" width="106" height="4" fill="#D4AF37"/>
  <path d="M85 100c15-8 30-5 40 0s20 8 35 2" fill="none" stroke="#D4AF37" stroke-width="4" stroke-linecap="round"/>
  <path d="M90 125c12 8 24 8 36 0s24-8 36 0" fill="none" stroke="#D4AF37" stroke-width="3.5" stroke-linecap="round"/>
  <path d="M85 150c20-6 35-2 45 3s25 8 35 0" fill="none" stroke="#D4AF37" stroke-width="4" stroke-linecap="round"/>
  <circle cx="100" cy="100" r="3" fill="#D4AF37"/>
  <circle cx="155" cy="125" r="3" fill="#D4AF37"/>
  <circle cx="110" cy="150" r="3" fill="#D4AF37"/>
  <rect x="85" y="175" width="86" height="3" fill="#D4AF37" opacity="0.6"/>
  <rect x="85" y="185" width="70" height="3" fill="#D4AF37" opacity="0.6"/>
</svg>